<svg id="Layer_1" data-name="Layer 1" xmlns="http://www.w3.org/2000/svg" viewBox="0 0 8.18 7.7"><defs><style>.cls-1{fill:#fff;}</style></defs><title>cart</title><path class="cls-1" d="M77.5,400.2c.09-.2.21-.24.42-.16l1.11.43a.37.37,0,0,1,.23.24c.06.19.13.38.19.57a.1.1,0,0,0,.11.08h5.81a.26.26,0,0,1,.3.21.29.29,0,0,1,0,.16c-.36,1.12-.71,2.24-1.07,3.36a.27.27,0,0,1-.29.21H80.37l-.24.67h4.21a.22.22,0,0,1,0,.44h-.25a.82.82,0,0,1,.18.67.74.74,0,0,1-.31.48.77.77,0,0,1-1,0,.74.74,0,0,1-.26-.54.82.82,0,0,1,.19-.57H81.2a.81.81,0,0,1,.17.7.76.76,0,0,1-.32.47.79.79,0,0,1-1-.07c-.3-.27-.32-.64-.06-1.1h-.17a.23.23,0,0,1-.22-.32L80,405a.61.61,0,0,1,.12-.16h0l0-.08c-.43-1.26-.87-2.51-1.3-3.77a.17.17,0,0,0-.12-.11l-1-.38a.34.34,0,0,1-.24-.21Zm2.16,1.69c.06.17.13.34.18.51a.09.09,0,0,0,.1.07h1.33v-.58Zm3.88,0v.58h1.29a.09.09,0,0,0,0,0l.18-.56Zm-1.74,1.79H83V403H81.8Zm-.53,0V403H80.05l.23.67Zm.53-1.79v.59H83v-.59ZM83.53,403v.67h.7c.08,0,.19,0,.25,0s.06-.15.08-.23.09-.28.14-.43Zm-1.73,1.76H83v-.56H81.8Zm-.53,0v-.57h-.8l.18.54.06,0Zm3-.56h-.78v.56h.58l0,0C84.2,404.56,84.26,404.39,84.31,404.21Zm-.81,2.35a.37.37,0,0,0-.36.35.35.35,0,0,0,.35.35.35.35,0,0,0,.35-.34A.35.35,0,0,0,83.5,406.56Zm-2.55.35a.35.35,0,0,0-.35-.35.35.35,0,0,0-.34.35.35.35,0,0,0,.35.35A.34.34,0,0,0,81,406.91Z" transform="translate(-77.5 -400)"/></svg>